FILE "cd_test.bin" BINARY
  TRACK 01 MODE2/2352
    INDEX 01 00:00:00
  TRACK 02 AUDIO
    INDEX 00 00:00:01
    INDEX 01 00:00:03  
  TRACK 03 AUDIO
    INDEX 00 00:00:04
    INDEX 01 00:00:05
REM ------------------------------
REM Bin data is random bytes
REM Used in the testing suite
